<svg xmlns="http://www.w3.org/2000/svg">
    <g id="search-bar" opacity="1">
        <path fill-rule="evenodd" clip-rule="evenodd" d="M9.93382 3.70286C6.44752 3.70286 3.62132 6.52907 3.62132 10.0154C3.62132 13.5017 6.44752 16.3279 9.93382 16.3279C13.4201 16.3279 16.2463 13.5017 16.2463 10.0154C16.2463 6.52907 13.4201 3.70286 9.93382 3.70286ZM1.93799 10.0154C1.93799 5.59939 5.51784 2.01953 9.93382 2.01953C14.3498 2.01953 17.9296 5.59939 17.9296 10.0154C17.9296 14.4313 14.3498 18.0112 9.93382 18.0112C5.51784 18.0112 1.93799 14.4313 1.93799 10.0154Z" fill="white"/>
        <path fill-rule="evenodd" clip-rule="evenodd" d="M13.9602 14.8988C14.2846 14.5659 14.8175 14.559 15.1504 14.8834L21.1959 20.7751C21.5288 21.0995 21.5357 21.6324 21.2112 21.9653C20.8868 22.2982 20.3539 22.3051 20.021 21.9806L13.9756 16.089C13.6427 15.7645 13.6358 15.2317 13.9602 14.8988Z" fill="white"/>
    </g>
    <path id="bio" fill-rule="evenodd" clip-rule="evenodd" d="M14.5207 5.28873C14.5207 8.05869 12.4361 10.2066 10.006 10.2066C7.57586 10.2066 5.49117 8.05869 5.49117 5.31221C5.47931 2.60094 7.58777 0.5 10.006 0.5C12.4241 0.5 14.5207 2.55399 14.5207 5.28873ZM0.5 18.9977C0.5 19.9836 1.14326 20.5 2.94201 20.5H17.058C18.8567 20.5 19.5 19.9836 19.5 18.9977C19.5 16.1338 15.8429 12.1901 10.006 12.1901C4.15705 12.1901 0.5 16.1338 0.5 18.9977Z" fill="white"/>

    <g id="cart">
        <path fill-rule="evenodd" clip-rule="evenodd" d="M10.2214 15.4665C10.3829 15.9206 10.8452 16.1949 11.3212 16.119L24.0874 14.0828C24.5004 14.017 24.8288 13.701 24.9106 13.2909L26.2654 6.49865C26.3875 5.88644 25.925 5.31324 25.3008 5.30317L7.94122 5.02324C7.24354 5.01199 6.74913 5.70067 6.98289 6.35812L10.2214 15.4665Z" fill="white"/>
        <path fill-rule="evenodd" clip-rule="evenodd" d="M10.8262 23.3593C12.1109 23.3593 13.1523 22.3178 13.1523 21.0331C13.1523 19.7484 12.1109 18.707 10.8262 18.707C9.54146 18.707 8.5 19.7484 8.5 21.0331C8.5 22.3178 9.54146 23.3593 10.8262 23.3593Z" fill="white"/>
        <path fill-rule="evenodd" clip-rule="evenodd" d="M22.457 23.3593C23.7417 23.3593 24.7831 22.3178 24.7831 21.0331C24.7831 19.7484 23.7417 18.707 22.457 18.707C21.1723 18.707 20.1308 19.7484 20.1308 21.0331C20.1308 22.3178 21.1723 23.3593 22.457 23.3593Z" fill="white"/>
        <path fill-rule="evenodd" clip-rule="evenodd" d="M4 2C5.933 2 7.5 1.77614 7.5 1.5C7.5 1.22386 5.933 1 4 1C2.067 1 0.5 1.22386 0.5 1.5C0.5 1.77614 2.067 2 4 2Z" fill="white"/>
        <path fill-rule="evenodd" clip-rule="evenodd" d="M1.45442 0.651472C2.1177 0.556717 3.01745 0.5 4 0.5C4.98255 0.5 5.8823 0.556717 6.54558 0.651472C6.87345 0.69831 7.16489 0.757343 7.38495 0.831667C7.4917 0.867722 7.61185 0.917169 7.71511 0.989256C7.80017 1.04864 8 1.21275 8 1.5C8 1.78725 7.80017 1.95136 7.71511 2.01074C7.61185 2.08283 7.4917 2.13228 7.38495 2.16833C7.16489 2.24266 6.87345 2.30169 6.54558 2.34853C5.8823 2.44328 4.98255 2.5 4 2.5C3.01745 2.5 2.1177 2.44328 1.45442 2.34853C1.12655 2.30169 0.835108 2.24266 0.615051 2.16833C0.508302 2.13228 0.388151 2.08283 0.284892 2.01074C0.199835 1.95136 0 1.78725 0 1.5C0 1.21275 0.199835 1.04864 0.284892 0.989256C0.388151 0.917169 0.508302 0.867722 0.615051 0.831667C0.835108 0.757343 1.12655 0.69831 1.45442 0.651472Z" fill="white"/>
    </g>
    <g id="delete">
        <path fill-rule="evenodd" clip-rule="evenodd" d="M2.5 5C2.5 4.72386 2.72386 4.5 3 4.5H17C17.2761 4.5 17.5 4.72386 17.5 5C17.5 5.27614 17.2761 5.5 17 5.5H3C2.72386 5.5 2.5 5.27614 2.5 5Z"/>
        <path fill-rule="evenodd" clip-rule="evenodd" d="M3.4584 4.5H16.5059L15.6411 15.6926C15.5405 16.9947 14.4546 18 13.1486 18H6.84639C5.54299 18 4.45829 16.9986 4.35435 15.6994L3.4584 4.5ZM4.5416 5.5L5.35117 15.6196C5.41353 16.3992 6.06435 17 6.84639 17H13.1486C13.9322 17 14.5837 16.3968 14.6441 15.6155L15.4256 5.5H4.5416Z"/>
        <path fill-rule="evenodd" clip-rule="evenodd" d="M13 5.5H7V3.46875C7 2.65758 7.65758 2 8.46875 2H11.5312C12.3424 2 13 2.65758 13 3.46875V5.5ZM8.46875 3C8.20987 3 8 3.20987 8 3.46875V4.5H12V3.46875C12 3.20987 11.7901 3 11.5312 3H8.46875Z"/>
    </g>
    <g id="like">
        <path fill-rule="evenodd" clip-rule="evenodd" d="M3.03393 4.05857C2.26586 4.75224 1.76681 5.83284 1.9949 7.42928C2.22329 9.02783 3.26491 10.6852 4.80433 12.3478C6.25862 13.9184 8.10959 15.4437 9.99992 16.874C11.8903 15.4437 13.7413 13.9184 15.1956 12.3478C16.735 10.6852 17.7766 9.02783 18.0049 7.4293C18.233 5.83285 17.7339 4.75224 16.9659 4.05856C16.1766 3.34572 15.0549 3 13.9999 3C12.1319 3 11.0923 4.08479 10.5176 4.68443C10.4581 4.7466 10.4035 4.80356 10.3535 4.85355C10.1582 5.04882 9.84163 5.04882 9.64637 4.85355C9.59638 4.80356 9.54179 4.7466 9.48221 4.68443C8.90754 4.08479 7.86794 3 5.99992 3C4.94492 3 3.82322 3.34573 3.03393 4.05857ZM2.36367 3.31643C3.37366 2.40427 4.75199 2 5.99992 2C8.0712 2 9.34536 3.11257 9.99993 3.77862C10.6545 3.11257 11.9286 2 13.9999 2C15.2479 2 16.6262 2.40428 17.6361 3.31644C18.6673 4.24776 19.2668 5.66715 18.9949 7.5707C18.7233 9.47217 17.5149 11.3148 15.9293 13.0272C14.3355 14.7486 12.3063 16.3952 10.2999 17.9C10.1221 18.0333 9.8777 18.0333 9.69992 17.9C7.6935 16.3952 5.6644 14.7485 4.07056 13.0272C2.485 11.3148 1.27662 9.47217 1.00495 7.57072C0.732982 5.66716 1.33246 4.24776 2.36367 3.31643Z"/>
    </g>
    <g id="pencil">
        <path fill-rule="evenodd" clip-rule="evenodd" d="M13.1585 3.05991L16.9401 6.84154L6.72705 17.0546L2.73544 17.8529C2.38557 17.9229 2.07711 17.6144 2.14709 17.2646L2.94541 13.273L13.1585 3.05991ZM4.17707 13.9321L13.1585 4.95072L15.0493 6.84154L6.06789 15.8229L3.70436 16.2956L4.17707 13.9321Z" fill="#CB11AB"/>
        <path fill-rule="evenodd" clip-rule="evenodd" d="M15.9948 7.78715L12.2132 4.00552L13.6313 2.5874C14.4145 1.8042 15.6843 1.8042 16.4675 2.5874L17.4129 3.53281C18.1961 4.31601 18.1961 5.58584 17.4129 6.36904L15.9948 7.78715ZM16.4675 5.42363C16.7286 5.16256 16.7286 4.73929 16.4675 4.47822L15.5221 3.53281C15.261 3.27174 14.8378 3.27174 14.5767 3.53281L14.104 4.00552L15.9948 5.89634L16.4675 5.42363Z" fill="#CB11AB"/>
    </g>
    <path id="tick" fill-rule="evenodd" clip-rule="evenodd" d="M12.7657 1.68024L4.59586 10.4814L0.257324 5.66913L1.74276 4.32992L4.6174 7.51844L11.2999 0.31958L12.7657 1.68024Z"/>
    <path id="turn" d="M17.3417 14.9121C16.966 15.2982 16.3477 15.3044 15.9644 14.9258L10.1418 9.17475C10.0634 9.0973 9.93715 9.09788 9.85945 9.17603L4.15281 14.9159C3.76725 15.3037 3.14293 15.3137 2.74516 14.9384C2.33549 14.552 2.32163 13.9049 2.71437 13.5012L9.28326 6.74949C9.67588 6.34593 10.3241 6.34593 10.7167 6.74949L17.3417 13.5588C17.7082 13.9355 17.7082 14.5354 17.3417 14.9121Z"/>
    <g id="info">
        <circle cx="10" cy="10" r="7.5" stroke="#A0A0A4"/>
        <path d="M9.88867 7.58691C9.62826 7.58691 9.41504 7.51042 9.24902 7.35742C9.08301 7.20117 9 7.01074 9 6.78613C9 6.55501 9.08301 6.36621 9.24902 6.21973C9.41504 6.07324 9.62826 6 9.88867 6C10.1523 6 10.3656 6.07324 10.5283 6.21973C10.6943 6.36621 10.7773 6.55501 10.7773 6.78613C10.7773 7.02051 10.6943 7.21257 10.5283 7.3623C10.3656 7.51204 10.1523 7.58691 9.88867 7.58691ZM10.6504 13.3779H9.10742V8.37793H10.6504V13.3779Z" fill="#A0A0A4"/>
    </g>
</svg>
