<svg width="32" height="25" viewBox="0 0 32 25" fill="none" xmlns="http://www.w3.org/2000/svg">
<rect y="0.5" width="32" height="24" rx="4" fill="#F6F6FA"/>
<path d="M17.682 9.34383L15.8652 13.2584H15.6814V8.50037H13.0859V16.5024H15.238C15.8219 16.5024 16.341 16.1672 16.5898 15.6482L18.4174 11.7445H18.6012V16.5024H21.1966V8.50037H19.0121C18.4498 8.50037 17.9199 8.83559 17.682 9.34383Z" fill="#319B42"/>
<path d="M7.97268 9.54929L6.90207 13.2584H6.71822L5.6368 9.54929C5.45296 8.9221 4.8798 8.50037 4.23095 8.50037H1.66797V16.5024H4.26339V11.7445H4.44723L5.9396 16.5024H7.66988L9.16225 11.7445H9.34609V16.5024H11.9415V8.50037H9.37853C8.72968 8.50037 8.14571 8.9221 7.97268 9.54929Z" fill="#319B42"/>
<path d="M22.3247 12.0675V16.5024H24.9209V13.9064H27.7119C28.9235 13.9064 29.9512 13.1383 30.3298 12.0675H22.3247Z" fill="#319B42"/>
<path d="M27.636 8.50037H21.8594C22.2164 10.4042 23.8823 11.7455 25.8836 11.7455H30.3729C30.4054 11.5724 30.427 11.3777 30.427 11.183C30.427 9.63616 29.183 8.50037 27.636 8.50037Z" fill="url(#paint0_linear_1_2099)"/>
<defs>
<linearGradient id="paint0_linear_1_2099" x1="21.8594" y1="10.1229" x2="30.427" y2="10.1229" gradientUnits="userSpaceOnUse">
<stop stop-color="#00A3E1"/>
<stop offset="0.3042" stop-color="#009ADD"/>
<stop offset="0.7987" stop-color="#0082D4"/>
<stop offset="1" stop-color="#0076CF"/>
</linearGradient>
</defs>
</svg>
