<svg width="32" height="25" viewBox="0 0 32 25" fill="none" xmlns="http://www.w3.org/2000/svg">
<rect y="0.5" width="32" height="24" rx="4" fill="#F6F6FA"/>
<path fill-rule="evenodd" clip-rule="evenodd" d="M16.4709 10.6781C16.453 12.0857 17.7254 12.8713 18.6838 13.3383C19.6686 13.8176 19.9994 14.1249 19.9956 14.5533C19.9881 15.2092 19.21 15.4986 18.4818 15.5099C17.2113 15.5296 16.4727 15.1669 15.8855 14.8926L15.4279 17.034C16.017 17.3056 17.108 17.5424 18.2394 17.5528C20.8949 17.5528 22.6323 16.2419 22.6418 14.2094C22.6521 11.63 19.0738 11.4872 19.0982 10.3342C19.1067 9.98466 19.4403 9.61157 20.1713 9.51668C20.5331 9.4688 21.532 9.43211 22.6643 9.9536L23.1087 7.8817C22.4998 7.65991 21.7171 7.44751 20.7427 7.44751C18.2431 7.44751 16.485 8.77621 16.4709 10.6781ZM27.3796 7.62604C26.8947 7.62604 26.4859 7.90892 26.3037 8.34304L22.5102 17.4005H25.1638L25.6919 15.9412H28.9347L29.241 17.4005H31.5799L29.5389 7.62604H27.3796ZM27.7507 10.2665L28.5165 13.9369H26.4192L27.7507 10.2665ZM13.2535 7.62604L11.1618 17.4005H13.6904L15.7812 7.62604H13.2535ZM9.51266 7.62604L6.88061 14.2789L5.81595 8.62209C5.69101 7.99068 5.19768 7.62604 4.64982 7.62604H0.347122L0.286962 7.90986C1.17028 8.10153 2.17385 8.41071 2.78179 8.74147C3.15386 8.94347 3.2601 9.12012 3.38222 9.60031L5.39874 17.4005H8.07123L12.1682 7.62604H9.51266Z" fill="#1434CB"/>
</svg>
